<svg width="32" height="32" viewBox="0 0 32 32" fill="none" xmlns="http://www.w3.org/2000/svg">
<path d="M16.0001 0.639648C7.51694 0.639648 0.640137 7.51645 0.640137 15.9996C0.640137 24.4828 7.51694 31.3596 16.0001 31.3596C24.4833 31.3596 31.3601 24.4828 31.3601 15.9996C31.3601 7.51645 24.4833 0.639648 16.0001 0.639648ZM21.9073 17.9692C21.9073 17.9692 23.2657 19.31 23.6001 19.9324C23.6097 19.9452 23.6145 19.958 23.6177 19.9644C23.7537 20.1932 23.7857 20.3708 23.7185 20.5036C23.6065 20.7244 23.2225 20.8333 23.0913 20.8428H20.6913C20.5249 20.8428 20.1761 20.7996 19.7537 20.5084C19.4289 20.2812 19.1089 19.9084 18.7969 19.5452C18.3313 19.0044 17.9281 18.5373 17.5217 18.5373C17.4701 18.5372 17.4188 18.5453 17.3697 18.5612C17.0625 18.6604 16.6689 19.0988 16.6689 20.2668C16.6689 20.6316 16.3809 20.8412 16.1777 20.8412H15.0785C14.7041 20.8412 12.7537 20.7101 11.0257 18.8876C8.91054 16.6556 7.00654 12.1788 6.99054 12.1372C6.87054 11.8476 7.11854 11.6924 7.38894 11.6924H9.81294C10.1361 11.6924 10.2417 11.8892 10.3153 12.0636C10.4017 12.2668 10.7185 13.0748 11.2385 13.9836C12.0817 15.4652 12.5985 16.0668 13.0129 16.0668C13.0906 16.0659 13.167 16.0462 13.2353 16.0092C13.7761 15.7084 13.6753 13.7804 13.6513 13.3804C13.6513 13.3052 13.6497 12.518 13.3729 12.1404C13.1745 11.8668 12.8369 11.7628 12.6321 11.7244C12.715 11.6101 12.8242 11.5173 12.9505 11.454C13.3217 11.2684 13.9905 11.2412 14.6545 11.2412H15.0241C15.7441 11.2508 15.9297 11.2972 16.1905 11.3628C16.7185 11.4892 16.7297 11.83 16.6833 12.9964C16.6689 13.3276 16.6545 13.702 16.6545 14.1436C16.6545 14.2396 16.6497 14.342 16.6497 14.4508C16.6337 15.0444 16.6145 15.718 17.0337 15.9948C17.0884 16.0291 17.1516 16.0474 17.2161 16.0476C17.3617 16.0476 17.8001 16.0476 18.9873 14.0108C19.3535 13.3553 19.6716 12.674 19.9393 11.9724C19.9633 11.9308 20.0337 11.8028 20.1169 11.7532C20.1783 11.7219 20.2464 11.706 20.3153 11.7068H23.1649C23.4753 11.7068 23.6881 11.7532 23.7281 11.8732C23.7985 12.0636 23.7153 12.6444 22.4145 14.406L21.8337 15.1724C20.6545 16.718 20.6545 16.7964 21.9073 17.9692Z" fill="#1D1D1D"/>
</svg>
