<svg width="31" height="32" viewBox="0 0 31 32" fill="none" xmlns="http://www.w3.org/2000/svg">
<path d="M15.5 0.5C6.9375 0.5 0 7.4375 0 16C0 24.5625 6.9375 31.5 15.5 31.5C24.0625 31.5 31 24.5625 31 16C31 7.4375 24.0625 0.5 15.5 0.5ZM23.1125 11.1187L20.5688 23.1063C20.3813 23.9563 19.875 24.1625 19.1688 23.7625L15.2937 20.9062L13.425 22.7062C13.2188 22.9125 13.0437 23.0875 12.6438 23.0875L12.9187 19.1437L20.1 12.6562C20.4125 12.3813 20.0312 12.225 19.6187 12.5L10.7437 18.0875L6.91875 16.8937C6.0875 16.6312 6.06875 16.0625 7.09375 15.6625L22.0375 9.9C22.7313 9.65 23.3375 10.0687 23.1125 11.1187Z" fill="#1D1D1D"/>
</svg>
