<svg width="225" height="70" viewBox="0 0 225 70" fill="none" xmlns="http://www.w3.org/2000/svg">
<g clip-path="url(#clip0)">
<path d="M50.4205 6.5H5.72729V64.4H50.4205V6.5Z" stroke="white" stroke-miterlimit="10"/>
<path d="M50.4205 6.5H5.72729V64.4H50.4205V6.5Z" stroke="white" stroke-miterlimit="10"/>
<path d="M56.6392 29.4082L56.2856 29.7618L56.2877 29.7639L56.6392 29.4082ZM53.6512 6.7642V6.2642H53.1512V6.7642H53.6512ZM59.4832 6.7642H59.9832V6.2642H59.4832V6.7642ZM69.2752 25.8082L69.6489 26.1404L69.6525 26.1363L69.2752 25.8082ZM70.7152 6.7642V6.2642H70.2152V6.7642H70.7152ZM76.4752 6.7642H76.9752V6.2642H76.4752V6.7642ZM73.4512 29.4082L73.0997 29.0525L73.0976 29.0546L73.4512 29.4082ZM65.0632 31.8962C61.5574 31.8962 58.8894 30.9288 56.9906 29.0525L56.2877 29.7639C58.4209 31.8716 61.3689 32.8962 65.0632 32.8962V31.8962ZM56.9927 29.0546C55.121 27.183 54.1512 24.4826 54.1512 20.8762H53.1512C53.1512 24.6618 54.1733 27.6494 56.2856 29.7618L56.9927 29.0546ZM54.1512 20.8762V6.7642H53.1512V20.8762H54.1512ZM53.6512 7.2642H59.4832V6.2642H53.6512V7.2642ZM58.9832 6.7642V20.6602H59.9832V6.7642H58.9832ZM58.9832 20.6602C58.9832 22.9729 59.461 24.8005 60.5024 26.0555C61.5586 27.3283 63.123 27.9282 65.0992 27.9282V26.9282C63.3313 26.9282 62.0877 26.4001 61.2719 25.4169C60.4413 24.4159 59.9832 22.8595 59.9832 20.6602H58.9832ZM65.0992 27.9282C67.0258 27.9282 68.5702 27.3539 69.6489 26.1404L68.9014 25.476C68.0601 26.4225 66.8205 26.9282 65.0992 26.9282V27.9282ZM69.6525 26.1363C70.7268 24.9008 71.2152 23.0414 71.2152 20.6602H70.2152C70.2152 22.935 69.7435 24.5076 68.8978 25.4801L69.6525 26.1363ZM71.2152 20.6602V6.7642H70.2152V20.6602H71.2152ZM70.7152 7.2642H76.4752V6.2642H70.7152V7.2642ZM75.9752 6.7642V20.8762H76.9752V6.7642H75.9752ZM75.9752 20.8762C75.9752 24.481 74.9942 27.1806 73.0997 29.0525L73.8026 29.7639C75.9401 27.6518 76.9752 24.6635 76.9752 20.8762H75.9752ZM73.0976 29.0546C71.2235 30.9287 68.5692 31.8962 65.0632 31.8962V32.8962C68.7571 32.8962 71.6948 31.8717 73.8047 29.7618L73.0976 29.0546ZM105.35 6.7642H105.85V6.2642H105.35V6.7642ZM105.35 31.9642V32.4642H105.85V31.9642H105.35ZM100.562 31.9642L100.176 32.2815L100.326 32.4642H100.562V31.9642ZM87.9982 16.6642L88.3847 16.3469L87.4982 15.2675V16.6642H87.9982ZM87.9982 31.9642V32.4642H88.4982V31.9642H87.9982ZM82.2382 31.9642H81.7382V32.4642H82.2382V31.9642ZM82.2382 6.7642V6.2642H81.7382V6.7642H82.2382ZM87.0622 6.7642L87.4491 6.44743L87.2991 6.2642H87.0622V6.7642ZM99.5902 22.0642L99.2034 22.381L100.09 23.4641V22.0642H99.5902ZM99.5902 6.7642V6.2642H99.0902V6.7642H99.5902ZM104.85 6.7642V31.9642H105.85V6.7642H104.85ZM105.35 31.4642H100.562V32.4642H105.35V31.4642ZM100.949 31.6469L88.3847 16.3469L87.6118 16.9815L100.176 32.2815L100.949 31.6469ZM87.4982 16.6642V31.9642H88.4982V16.6642H87.4982ZM87.9982 31.4642H82.2382V32.4642H87.9982V31.4642ZM82.7382 31.9642V6.7642H81.7382V31.9642H82.7382ZM82.2382 7.2642H87.0622V6.2642H82.2382V7.2642ZM86.6754 7.08097L99.2034 22.381L99.9771 21.7474L87.4491 6.44743L86.6754 7.08097ZM100.09 22.0642V6.7642H99.0902V22.0642H100.09ZM99.5902 7.2642H105.35V6.2642H99.5902V7.2642ZM111.312 6.7642V6.2642H110.812V6.7642H111.312ZM129.996 8.3482L129.771 8.79443L129.777 8.79744L129.996 8.3482ZM134.892 12.7402L134.465 12.9998L134.468 13.0037L134.892 12.7402ZM134.892 25.9882L134.468 25.7246L134.465 25.7286L134.892 25.9882ZM129.996 30.4162L130.218 30.8644L130.22 30.8634L129.996 30.4162ZM111.312 31.9642H110.812V32.4642H111.312V31.9642ZM128.484 25.0882L128.826 25.4533L128.826 25.4532L128.484 25.0882ZM128.484 13.6762L128.14 14.0385L128.146 14.0441L128.484 13.6762ZM117.144 11.5522V11.0522H116.644V11.5522H117.144ZM117.144 27.1762H116.644V27.6762H117.144V27.1762ZM111.312 7.2642H122.76V6.2642H111.312V7.2642ZM122.76 7.2642C125.431 7.2642 127.764 7.7793 129.771 8.79438L130.222 7.90202C128.053 6.80511 125.562 6.2642 122.76 6.2642V7.2642ZM129.777 8.79744C131.808 9.79005 133.366 11.1906 134.465 12.9998L135.32 12.4806C134.115 10.4978 132.409 8.97036 130.216 7.89896L129.777 8.79744ZM134.468 13.0037C135.588 14.8107 136.156 16.925 136.156 19.3642H137.156C137.156 16.7634 136.549 14.4617 135.317 12.4767L134.468 13.0037ZM136.156 19.3642C136.156 21.8034 135.588 23.9177 134.468 25.7247L135.317 26.2518C136.549 24.2667 137.156 21.965 137.156 19.3642H136.156ZM134.465 25.7286C133.365 27.5389 131.806 28.9523 129.773 29.969L130.22 30.8634C132.411 29.7681 134.116 28.2295 135.32 26.2478L134.465 25.7286ZM129.775 29.968C127.767 30.9605 125.433 31.4642 122.76 31.4642V32.4642C125.56 32.4642 128.05 31.936 130.218 30.8644L129.775 29.968ZM122.76 31.4642H111.312V32.4642H122.76V31.4642ZM111.812 31.9642V6.7642H110.812V31.9642H111.812ZM122.472 27.6762C125.088 27.6762 127.225 26.9514 128.826 25.4533L128.143 24.7231C126.768 26.009 124.897 26.6762 122.472 26.6762V27.6762ZM128.826 25.4532C130.455 23.9274 131.252 21.8785 131.252 19.3642H130.252C130.252 21.6499 129.537 23.417 128.143 24.7233L128.826 25.4532ZM131.252 19.3642C131.252 16.8501 130.455 14.8111 128.823 13.3084L128.146 14.0441C129.538 15.3253 130.252 17.0783 130.252 19.3642H131.252ZM128.829 13.314C127.228 11.7904 125.09 11.0522 122.472 11.0522V12.0522C124.895 12.0522 126.765 12.73 128.14 14.0384L128.829 13.314ZM122.472 11.0522H117.144V12.0522H122.472V11.0522ZM116.644 11.5522V27.1762H117.644V11.5522H116.644ZM117.144 27.6762H122.472V26.6762H117.144V27.6762ZM160.567 27.2842H161.067V26.7842H160.567V27.2842ZM160.567 31.9642V32.4642H161.067V31.9642H160.567ZM141.055 31.9642H140.555V32.4642H141.055V31.9642ZM141.055 6.7642V6.2642H140.555V6.7642H141.055ZM160.099 6.7642H160.599V6.2642H160.099V6.7642ZM160.099 11.4442V11.9442H160.599V11.4442H160.099ZM146.851 11.4442V10.9442H146.351V11.4442H146.851ZM146.851 16.9162H146.351V17.4162H146.851V16.9162ZM158.551 16.9162H159.051V16.4162H158.551V16.9162ZM158.551 21.4522V21.9522H159.051V21.4522H158.551ZM146.851 21.4522V20.9522H146.351V21.4522H146.851ZM146.851 27.2842H146.351V27.7842H146.851V27.2842ZM160.067 27.2842V31.9642H161.067V27.2842H160.067ZM160.567 31.4642H141.055V32.4642H160.567V31.4642ZM141.555 31.9642V6.7642H140.555V31.9642H141.555ZM141.055 7.2642H160.099V6.2642H141.055V7.2642ZM159.599 6.7642V11.4442H160.599V6.7642H159.599ZM160.099 10.9442H146.851V11.9442H160.099V10.9442ZM146.351 11.4442V16.9162H147.351V11.4442H146.351ZM146.851 17.4162H158.551V16.4162H146.851V17.4162ZM158.051 16.9162V21.4522H159.051V16.9162H158.051ZM158.551 20.9522H146.851V21.9522H158.551V20.9522ZM146.351 21.4522V27.2842H147.351V21.4522H146.351ZM146.851 27.7842H160.567V26.7842H146.851V27.7842ZM181.263 31.9642L180.852 32.2488L181.001 32.4642H181.263V31.9642ZM176.403 24.9442L176.814 24.6596L176.665 24.4442H176.403V24.9442ZM171.039 24.9442V24.4442H170.539V24.9442H171.039ZM171.039 31.9642V32.4642H171.539V31.9642H171.039ZM165.207 31.9642H164.707V32.4642H165.207V31.9642ZM165.207 6.7642V6.2642H164.707V6.7642H165.207ZM181.911 7.8802L181.704 8.33516L181.706 8.33629L181.911 7.8802ZM185.691 20.7682L185.275 20.4909L185.274 20.4926L185.691 20.7682ZM181.875 23.8642L181.676 23.4057L181.115 23.6493L181.465 24.1503L181.875 23.8642ZM187.527 31.9642V32.4642H188.486L187.937 31.6781L187.527 31.9642ZM179.787 12.6682L179.465 13.0507L179.471 13.0556L179.787 12.6682ZM171.039 11.5162V11.0162H170.539V11.5162H171.039ZM171.039 20.3002H170.539V20.8002H171.039V20.3002ZM179.787 19.1482L180.109 19.5307L179.787 19.1482ZM181.674 31.6796L176.814 24.6596L175.992 25.2288L180.852 32.2488L181.674 31.6796ZM176.403 24.4442H176.115V25.4442H176.403V24.4442ZM176.115 24.4442H171.039V25.4442H176.115V24.4442ZM170.539 24.9442V31.9642H171.539V24.9442H170.539ZM171.039 31.4642H165.207V32.4642H171.039V31.4642ZM165.707 31.9642V6.7642H164.707V31.9642H165.707ZM165.207 7.2642H176.115V6.2642H165.207V7.2642ZM176.115 7.2642C178.292 7.2642 180.151 7.62717 181.704 8.33516L182.118 7.42525C180.407 6.64524 178.402 6.2642 176.115 6.2642V7.2642ZM181.706 8.33629C183.285 9.0455 184.478 10.042 185.308 11.3204L186.146 10.776C185.2 9.3184 183.849 8.2029 182.116 7.42412L181.706 8.33629ZM185.308 11.3204C186.136 12.5959 186.559 14.1182 186.559 15.9082H187.559C187.559 13.9542 187.094 12.2365 186.146 10.776L185.308 11.3204ZM186.559 15.9082C186.559 17.6956 186.125 19.216 185.275 20.4909L186.107 21.0456C187.081 19.5844 187.559 17.8648 187.559 15.9082H186.559ZM185.274 20.4926C184.445 21.7463 183.254 22.7194 181.676 23.4057L182.074 24.3227C183.808 23.569 185.16 22.4781 186.108 21.0438L185.274 20.4926ZM181.465 24.1503L187.117 32.2503L187.937 31.6781L182.285 23.5781L181.465 24.1503ZM187.527 31.4642H181.263V32.4642H187.527V31.4642ZM181.655 15.9082C181.655 14.3757 181.155 13.1392 180.103 12.2808L179.471 13.0556C180.243 13.6852 180.655 14.6087 180.655 15.9082H181.655ZM180.109 12.2857C179.073 11.4132 177.607 11.0162 175.791 11.0162V12.0162C177.479 12.0162 178.677 12.3872 179.465 13.0507L180.109 12.2857ZM175.791 11.0162H171.039V12.0162H175.791V11.0162ZM170.539 11.5162V20.3002H171.539V11.5162H170.539ZM171.039 20.8002H175.791V19.8002H171.039V20.8002ZM175.791 20.8002C177.607 20.8002 179.073 20.4032 180.109 19.5307L179.465 18.7657C178.677 19.4292 177.479 19.8002 175.791 19.8002V20.8002ZM180.109 19.5307C181.153 18.6513 181.655 17.4203 181.655 15.9082H180.655C180.655 17.1802 180.245 18.1091 179.465 18.7657L180.109 19.5307Z" fill="white"/>
<path d="M71.5046 48.5051V48.0051H71.0046V48.5051H71.5046ZM76.8326 48.5051H77.3326V48.0051H76.8326V48.5051ZM76.8326 58.7291L77.1337 59.1283L77.3326 58.9782V58.7291H76.8326ZM72.0806 61.1051L72.2272 61.5831L72.0806 61.1051ZM59.5886 60.2771L59.3509 60.717L59.3549 60.7191L59.5886 60.2771ZM54.6566 55.6331L54.226 55.8873L54.2297 55.8934L54.6566 55.6331ZM54.6566 42.2051L54.2283 41.9471L54.2274 41.9486L54.6566 42.2051ZM59.6246 37.5611L59.8562 38.0042L59.8601 38.0021L59.6246 37.5611ZM72.7646 36.9851L72.9556 36.523L72.7646 36.9851ZM77.3006 40.2251L77.6397 40.5925L77.9953 40.2642L77.6789 39.8981L77.3006 40.2251ZM73.5566 43.6811L73.194 44.0254L73.5334 44.3829L73.8957 44.0485L73.5566 43.6811ZM62.7566 41.8451L62.9936 42.2853L62.7566 41.8451ZM59.8406 53.0771L59.4059 53.3242L59.8406 53.0771ZM62.7206 55.9571L62.4734 56.3919L62.4835 56.3973L62.7206 55.9571ZM71.5046 55.8851L71.7407 56.3258L72.0046 56.1845V55.8851H71.5046ZM71.5046 49.0051H76.8326V48.0051H71.5046V49.0051ZM76.3326 48.5051V58.7291H77.3326V48.5051H76.3326ZM76.5315 58.3299C75.2144 59.3236 73.6838 60.0905 71.934 60.6271L72.2272 61.5831C74.0774 61.0157 75.7148 60.1986 77.1337 59.1283L76.5315 58.3299ZM71.934 60.6271C70.18 61.165 68.4173 61.4331 66.6446 61.4331V62.4331C68.5199 62.4331 70.3812 62.1492 72.2272 61.5831L71.934 60.6271ZM66.6446 61.4331C64.1011 61.4331 61.8308 60.897 59.8223 59.8351L59.3549 60.7191C61.5224 61.8652 63.956 62.4331 66.6446 62.4331V61.4331ZM59.8262 59.8372C57.8137 58.75 56.236 57.2629 55.0835 55.3728L54.2297 55.8934C55.4772 57.9393 57.1875 59.5482 59.3509 60.717L59.8262 59.8372ZM55.0872 55.3789C53.9602 53.47 53.3926 51.315 53.3926 48.9011H52.3926C52.3926 51.4792 53.001 53.8122 54.226 55.8873L55.0872 55.3789ZM53.3926 48.9011C53.3926 46.4871 53.9602 44.3452 55.0858 42.4616L54.2274 41.9486C53.001 44.001 52.3926 46.3231 52.3926 48.9011H53.3926ZM55.0849 42.4631C56.2363 40.5517 57.8234 39.0668 59.8562 38.0042L59.393 37.118C57.2018 38.2634 55.4768 39.8745 54.2283 41.9471L55.0849 42.4631ZM59.8601 38.0021C61.8924 36.9167 64.1862 36.3691 66.7526 36.3691V35.3691C64.039 35.3691 61.5807 35.9495 59.389 37.1201L59.8601 38.0021ZM66.7526 36.3691C68.9038 36.3691 70.8417 36.7313 72.5736 37.4472L72.9556 36.523C71.0875 35.7509 69.0174 35.3691 66.7526 35.3691V36.3691ZM72.5736 37.4472C74.3045 38.1626 75.7514 39.1975 76.9223 40.5521L77.6789 39.8981C76.4017 38.4207 74.8247 37.2956 72.9556 36.523L72.5736 37.4472ZM76.9614 39.8577L73.2174 43.3137L73.8957 44.0485L77.6397 40.5925L76.9614 39.8577ZM73.9192 43.3368C72.0277 41.3445 69.7259 40.3371 67.0406 40.3371V41.3371C69.4433 41.3371 71.4854 42.2257 73.194 44.0254L73.9192 43.3368ZM67.0406 40.3371C65.3611 40.3371 63.8497 40.6886 62.5195 41.4049L62.9936 42.2853C64.1595 41.6576 65.5041 41.3371 67.0406 41.3371V40.3371ZM62.5195 41.4049C61.1894 42.1211 60.1487 43.1357 59.4059 44.4419L60.2752 44.9362C60.9245 43.7945 61.8277 42.9131 62.9936 42.2853L62.5195 41.4049ZM59.4059 44.4419C58.662 45.7503 58.2966 47.2415 58.2966 48.9011H59.2966C59.2966 47.3927 59.6272 46.0759 60.2752 44.9362L59.4059 44.4419ZM58.2966 48.9011C58.2966 50.5382 58.6626 52.017 59.4059 53.3242L60.2752 52.8299C59.6266 51.6892 59.2966 50.384 59.2966 48.9011H58.2966ZM59.4059 53.3242C60.1464 54.6265 61.1712 55.6513 62.4734 56.3917L62.9677 55.5225C61.822 54.8709 60.9267 53.9757 60.2752 52.8299L59.4059 53.3242ZM62.4835 56.3973C63.8126 57.113 65.3117 57.4651 66.9686 57.4651V56.4651C65.4574 56.4651 64.1245 56.1452 62.9576 55.5169L62.4835 56.3973ZM66.9686 57.4651C68.7224 57.4651 70.3169 57.0886 71.7407 56.3258L71.2685 55.4444C70.0043 56.1216 68.5748 56.4651 66.9686 56.4651V57.4651ZM72.0046 55.8851V48.5051H71.0046V55.8851H72.0046ZM98.306 61.5011L97.8949 61.7857L98.044 62.0011H98.306V61.5011ZM93.446 54.4811L93.8571 54.1965L93.708 53.9811H93.446V54.4811ZM88.082 54.4811V53.9811H87.582V54.4811H88.082ZM88.082 61.5011V62.0011H88.582V61.5011H88.082ZM82.25 61.5011H81.75V62.0011H82.25V61.5011ZM82.25 36.3011V35.8011H81.75V36.3011H82.25ZM98.954 37.4171L98.7466 37.8721L98.7491 37.8732L98.954 37.4171ZM102.734 50.3051L102.318 50.0277L102.317 50.0295L102.734 50.3051ZM98.918 53.4011L98.7187 52.9426L98.1584 53.1862L98.508 53.6872L98.918 53.4011ZM104.57 61.5011V62.0011H105.529L104.98 61.215L104.57 61.5011ZM96.83 42.2051L96.5079 42.5876L96.514 42.5925L96.83 42.2051ZM88.082 41.0531V40.5531H87.582V41.0531H88.082ZM88.082 49.8371H87.582V50.3371H88.082V49.8371ZM96.83 48.6851L97.1521 49.0676L96.83 48.6851ZM98.7171 61.2165L93.8571 54.1965L93.0349 54.7657L97.8949 61.7857L98.7171 61.2165ZM93.446 53.9811H93.158V54.9811H93.446V53.9811ZM93.158 53.9811H88.082V54.9811H93.158V53.9811ZM87.582 54.4811V61.5011H88.582V54.4811H87.582ZM88.082 61.0011H82.25V62.0011H88.082V61.0011ZM82.75 61.5011V36.3011H81.75V61.5011H82.75ZM82.25 36.8011H93.158V35.8011H82.25V36.8011ZM93.158 36.8011C95.3355 36.8011 97.1936 37.1641 98.7466 37.8721L99.1614 36.9621C97.4504 36.1821 95.4446 35.8011 93.158 35.8011V36.8011ZM98.7491 37.8732C100.328 38.5824 101.521 39.5789 102.351 40.8573L103.189 40.3129C102.243 38.8553 100.892 37.7398 99.1589 36.961L98.7491 37.8732ZM102.351 40.8573C103.179 42.1328 103.602 43.6551 103.602 45.4451H104.602C104.602 43.4911 104.137 41.7734 103.189 40.3129L102.351 40.8573ZM103.602 45.4451C103.602 47.2325 103.168 48.7529 102.318 50.0277L103.15 50.5824C104.124 49.1213 104.602 47.4017 104.602 45.4451H103.602ZM102.317 50.0295C101.489 51.2832 100.297 52.2563 98.7187 52.9426L99.1174 53.8596C100.851 53.1059 102.204 52.015 103.151 50.5807L102.317 50.0295ZM98.508 53.6872L104.16 61.7872L104.98 61.215L99.3281 53.115L98.508 53.6872ZM104.57 61.0011H98.306V62.0011H104.57V61.0011ZM98.698 45.4451C98.698 43.9126 98.1983 42.6761 97.1461 41.8177L96.514 42.5925C97.2857 43.2221 97.698 44.1456 97.698 45.4451H98.698ZM97.1521 41.8226C96.1159 40.9501 94.6501 40.5531 92.834 40.5531V41.5531C94.522 41.5531 95.7201 41.9241 96.508 42.5876L97.1521 41.8226ZM92.834 40.5531H88.082V41.5531H92.834V40.5531ZM87.582 41.0531V49.8371H88.582V41.0531H87.582ZM88.082 50.3371H92.834V49.3371H88.082V50.3371ZM92.834 50.3371C94.6501 50.3371 96.1159 49.9401 97.1521 49.0676L96.508 48.3026C95.7201 48.9661 94.522 49.3371 92.834 49.3371V50.3371ZM97.1521 49.0676C98.1963 48.1882 98.698 46.9571 98.698 45.4451H97.698C97.698 46.717 97.2877 47.646 96.508 48.3026L97.1521 49.0676ZM113.835 60.2411L113.597 60.681L113.599 60.6821L113.835 60.2411ZM108.903 55.5971L108.472 55.8513L108.476 55.8574L108.903 55.5971ZM108.903 42.2411L108.474 41.9831L108.473 41.9846L108.903 42.2411ZM113.835 37.5611L113.599 37.1201L113.597 37.1212L113.835 37.5611ZM132.915 42.2411L132.486 42.4991L132.488 42.5014L132.915 42.2411ZM132.915 55.5971L133.342 55.8574L133.343 55.8551L132.915 55.5971ZM127.983 60.2411L128.22 60.681L127.983 60.2411ZM124.959 55.9571L125.203 56.3934L125.21 56.3896L124.959 55.9571ZM127.767 53.0771L127.332 52.8299L127.328 52.8365L127.767 53.0771ZM127.767 44.7251L127.328 44.9658L127.332 44.9722L127.767 44.7251ZM124.959 41.8811L124.708 42.3137L124.714 42.3174L124.959 41.8811ZM116.895 41.8811L117.139 42.3174L117.146 42.3136L116.895 41.8811ZM114.051 44.7251L113.616 44.4779L113.612 44.4845L114.051 44.7251ZM114.051 53.0771L113.612 53.3178L113.616 53.3242L114.051 53.0771ZM116.895 55.9571L116.644 56.3897L116.65 56.3934L116.895 55.9571ZM120.927 61.4331C118.385 61.4331 116.103 60.8858 114.07 59.8001L113.599 60.6821C115.79 61.8524 118.236 62.4331 120.927 62.4331V61.4331ZM114.072 59.8012C112.06 58.714 110.482 57.2269 109.33 55.3368L108.476 55.8574C109.723 57.9033 111.434 59.5122 113.597 60.681L114.072 59.8012ZM109.333 55.3429C108.206 53.4332 107.639 51.2901 107.639 48.9011H106.639C106.639 51.4561 107.248 53.777 108.472 55.8513L109.333 55.3429ZM107.639 48.9011C107.639 46.5121 108.206 44.382 109.332 42.4976L108.473 41.9846C107.248 44.0362 106.639 46.3461 106.639 48.9011H107.639ZM109.331 42.4991C110.484 40.5853 112.061 39.0874 114.072 38.001L113.597 37.1212C111.432 38.2908 109.722 39.9129 108.474 41.9831L109.331 42.4991ZM114.07 38.0021C116.103 36.9164 118.385 36.3691 120.927 36.3691V35.3691C118.236 35.3691 115.79 35.9498 113.599 37.1201L114.07 38.0021ZM120.927 36.3691C123.468 36.3691 125.737 36.9164 127.745 38.001L128.22 37.1212C126.052 35.9498 123.617 35.3691 120.927 35.3691V36.3691ZM127.745 38.001C129.756 39.0874 131.334 40.5853 132.486 42.4991L133.343 41.9831C132.096 39.9129 130.385 38.2908 128.22 37.1212L127.745 38.001ZM132.488 42.5014C133.636 44.3853 134.215 46.514 134.215 48.9011H135.215C135.215 46.3442 134.593 44.0329 133.342 41.9808L132.488 42.5014ZM134.215 48.9011C134.215 51.2881 133.636 53.4299 132.486 55.3391L133.343 55.8551C134.593 53.7803 135.215 51.4581 135.215 48.9011H134.215ZM132.488 55.3368C131.335 57.2269 129.758 58.714 127.745 59.8012L128.22 60.681C130.384 59.5122 132.094 57.9033 133.342 55.8574L132.488 55.3368ZM127.745 59.8012C125.737 60.8858 123.468 61.4331 120.927 61.4331V62.4331C123.617 62.4331 126.052 61.8524 128.22 60.681L127.745 59.8012ZM120.927 57.4651C122.493 57.4651 123.922 57.1105 125.203 56.3934L124.714 55.5208C123.595 56.1477 122.336 56.4651 120.927 56.4651V57.4651ZM125.21 56.3896C126.489 55.6476 127.489 54.621 128.205 53.3177L127.328 52.8365C126.7 53.9812 125.828 54.8746 124.708 55.5246L125.21 56.3896ZM128.201 53.3242C128.945 52.017 129.311 50.5382 129.311 48.9011H128.311C128.311 50.384 127.981 51.6892 127.332 52.8299L128.201 53.3242ZM129.311 48.9011C129.311 47.264 128.945 45.7852 128.201 44.4779L127.332 44.9722C127.981 46.113 128.311 47.4182 128.311 48.9011H129.311ZM128.205 44.4845C127.489 43.1797 126.486 42.1633 125.203 41.4448L124.714 42.3174C125.831 42.9429 126.701 43.8225 127.328 44.9657L128.205 44.4845ZM125.21 41.4486C123.928 40.7052 122.496 40.3371 120.927 40.3371V41.3371C122.333 41.3371 123.59 41.665 124.708 42.3136L125.21 41.4486ZM120.927 40.3371C119.357 40.3371 117.926 40.7052 116.644 41.4486L117.146 42.3136C118.264 41.665 119.52 41.3371 120.927 41.3371V40.3371ZM116.65 41.4448C115.369 42.1625 114.356 43.1767 113.616 44.4779L114.485 44.9722C115.137 43.8255 116.02 42.9437 117.139 42.3174L116.65 41.4448ZM113.612 44.4845C112.895 45.7905 112.543 47.267 112.543 48.9011H113.543C113.543 47.4152 113.862 46.1077 114.489 44.9657L113.612 44.4845ZM112.543 48.9011C112.543 50.5352 112.895 52.0117 113.612 53.3177L114.489 52.8365C113.862 51.6945 113.543 50.387 113.543 48.9011H112.543ZM113.616 53.3242C114.355 54.624 115.366 55.6485 116.644 56.3896L117.146 55.5246C116.023 54.8737 115.138 53.9782 114.485 52.8299L113.616 53.3242ZM116.65 56.3934C117.931 57.1105 119.36 57.4651 120.927 57.4651V56.4651C119.517 56.4651 118.258 56.1477 117.139 55.5208L116.65 56.3934ZM141.87 58.9451L141.516 59.2987L141.518 59.3008L141.87 58.9451ZM138.882 36.3011V35.8011H138.382V36.3011H138.882ZM144.714 36.3011H145.214V35.8011H144.714V36.3011ZM154.506 55.3451L154.879 55.6773L154.883 55.6732L154.506 55.3451ZM155.946 36.3011V35.8011H155.446V36.3011H155.946ZM161.706 36.3011H162.206V35.8011H161.706V36.3011ZM158.682 58.9451L158.33 58.5894L158.328 58.5915L158.682 58.9451ZM150.294 61.4331C146.788 61.4331 144.12 60.4657 142.221 58.5894L141.518 59.3008C143.651 61.4085 146.599 62.4331 150.294 62.4331V61.4331ZM142.223 58.5915C140.352 56.7199 139.382 54.0195 139.382 50.4131H138.382C138.382 54.1987 139.404 57.1863 141.516 59.2987L142.223 58.5915ZM139.382 50.4131V36.3011H138.382V50.4131H139.382ZM138.882 36.8011H144.714V35.8011H138.882V36.8011ZM144.214 36.3011V50.1971H145.214V36.3011H144.214ZM144.214 50.1971C144.214 52.5098 144.692 54.3374 145.733 55.5924C146.789 56.8652 148.354 57.4651 150.33 57.4651V56.4651C148.562 56.4651 147.318 55.937 146.502 54.9538C145.672 53.9528 145.214 52.3964 145.214 50.1971H144.214ZM150.33 57.4651C152.256 57.4651 153.801 56.8908 154.879 55.6773L154.132 55.0129C153.291 55.9594 152.051 56.4651 150.33 56.4651V57.4651ZM154.883 55.6732C155.957 54.4377 156.446 52.5783 156.446 50.1971H155.446C155.446 52.4719 154.974 54.0445 154.128 55.017L154.883 55.6732ZM156.446 50.1971V36.3011H155.446V50.1971H156.446ZM155.946 36.8011H161.706V35.8011H155.946V36.8011ZM161.206 36.3011V50.4131H162.206V36.3011H161.206ZM161.206 50.4131C161.206 54.0178 160.225 56.7175 158.33 58.5894L159.033 59.3008C161.171 57.1887 162.206 54.2003 162.206 50.4131H161.206ZM158.328 58.5915C156.454 60.4656 153.8 61.4331 150.294 61.4331V62.4331C153.988 62.4331 156.925 61.4086 159.035 59.2987L158.328 58.5915ZM190.581 36.3011H191.081V35.8011H190.581V36.3011ZM190.581 61.5011V62.0011H191.081V61.5011H190.581ZM185.793 61.5011L185.406 61.8184L185.556 62.0011H185.793V61.5011ZM173.229 46.2011L173.615 45.8838L172.729 44.8043V46.2011H173.229ZM173.229 61.5011V62.0011H173.729V61.5011H173.229ZM167.469 61.5011H166.969V62.0011H167.469V61.5011ZM167.469 36.3011V35.8011H166.969V36.3011H167.469ZM172.293 36.3011L172.68 35.9843L172.53 35.8011H172.293V36.3011ZM184.821 51.6011L184.434 51.9179L185.321 53.001V51.6011H184.821ZM184.821 36.3011V35.8011H184.321V36.3011H184.821ZM190.081 36.3011V61.5011H191.081V36.3011H190.081ZM190.581 61.0011H185.793V62.0011H190.581V61.0011ZM186.179 61.1838L173.615 45.8838L172.842 46.5184L185.406 61.8184L186.179 61.1838ZM172.729 46.2011V61.5011H173.729V46.2011H172.729ZM173.229 61.0011H167.469V62.0011H173.229V61.0011ZM167.969 61.5011V36.3011H166.969V61.5011H167.969ZM167.469 36.8011H172.293V35.8011H167.469V36.8011ZM171.906 36.6179L184.434 51.9179L185.208 51.2843L172.68 35.9843L171.906 36.6179ZM185.321 51.6011V36.3011H184.321V51.6011H185.321ZM184.821 36.8011H190.581V35.8011H184.821V36.8011ZM196.543 36.3011V35.8011H196.043V36.3011H196.543ZM215.227 37.8851L215.001 38.3313L215.007 38.3343L215.227 37.8851ZM220.123 42.2771L219.696 42.5367L219.698 42.5406L220.123 42.2771ZM220.123 55.5251L219.698 55.2615L219.696 55.2655L220.123 55.5251ZM215.227 59.9531L215.449 60.4013L215.451 60.4003L215.227 59.9531ZM196.543 61.5011H196.043V62.0011H196.543V61.5011ZM213.715 54.6251L214.057 54.9902L214.057 54.99L213.715 54.6251ZM213.715 43.2131L213.37 43.5754L213.376 43.5809L213.715 43.2131ZM202.375 41.0891V40.5891H201.875V41.0891H202.375ZM202.375 56.7131H201.875V57.2131H202.375V56.7131ZM196.543 36.8011H207.991V35.8011H196.543V36.8011ZM207.991 36.8011C210.662 36.8011 212.994 37.3162 215.001 38.3313L215.453 37.4389C213.284 36.342 210.792 35.8011 207.991 35.8011V36.8011ZM215.007 38.3343C217.039 39.3269 218.596 40.7275 219.696 42.5367L220.55 42.0175C219.346 40.0347 217.639 38.5073 215.447 37.4359L215.007 38.3343ZM219.698 42.5406C220.819 44.3476 221.387 46.4619 221.387 48.9011H222.387C222.387 46.3003 221.779 43.9986 220.548 42.0135L219.698 42.5406ZM221.387 48.9011C221.387 51.3403 220.819 53.4546 219.698 55.2616L220.548 55.7886C221.779 53.8036 222.387 51.5019 222.387 48.9011H221.387ZM219.696 55.2655C218.596 57.0758 217.037 58.4892 215.003 59.5059L215.451 60.4003C217.641 59.305 219.346 57.7664 220.55 55.7847L219.696 55.2655ZM215.005 59.5049C212.997 60.4973 210.664 61.0011 207.991 61.0011V62.0011C210.79 62.0011 213.281 61.4729 215.449 60.4013L215.005 59.5049ZM207.991 61.0011H196.543V62.0011H207.991V61.0011ZM197.043 61.5011V36.3011H196.043V61.5011H197.043ZM207.703 57.2131C210.318 57.2131 212.455 56.4883 214.057 54.9902L213.373 54.26C211.999 55.5459 210.128 56.2131 207.703 56.2131V57.2131ZM214.057 54.99C215.686 53.4643 216.483 51.4154 216.483 48.9011H215.483C215.483 51.1868 214.768 52.9539 213.373 54.2601L214.057 54.99ZM216.483 48.9011C216.483 46.387 215.686 44.348 214.054 42.8452L213.376 43.5809C214.768 44.8622 215.483 46.6152 215.483 48.9011H216.483ZM214.06 42.8509C212.459 41.3273 210.321 40.5891 207.703 40.5891V41.5891C210.125 41.5891 211.995 42.2669 213.37 43.5753L214.06 42.8509ZM207.703 40.5891H202.375V41.5891H207.703V40.5891ZM201.875 41.0891V56.7131H202.875V41.0891H201.875ZM202.375 57.2131H207.703V56.2131H202.375V57.2131Z" fill="white"/>
<path d="M26.2841 13.4C25.6705 13.5 24.5455 13.8 24.0341 14.1C23.1136 14.6 23.1136 14.4 23.1136 19.9V24.8L23.4205 24.7C25.5682 24.1 30.6818 24.1 32.8296 24.7L33.1364 24.8V19.8V14.8L32.625 14.4C31.5 13.6 28.9432 13.1 26.2841 13.4ZM28.7386 15.6C29.3523 15.8 30.0682 16.4 30.2727 17C31.1932 19 29.0455 21.1 27 20.2C25.3636 19.5 24.9546 17.4 26.2841 16.2C27 15.6 27.8182 15.4 28.7386 15.6Z" stroke="white" stroke-miterlimit="10"/>
<path d="M27.6136 17.1C27 17.4 26.8977 18.2 27.4091 18.7C27.5114 18.8 27.8182 18.9 28.125 18.9C28.4318 18.9 28.6364 18.8 28.8409 18.6C29.25 18.2 29.25 17.8 28.8409 17.4C28.4318 17 28.0227 16.9 27.6136 17.1Z" stroke="white" stroke-miterlimit="10"/>
<path d="M24.2387 25.6C22.8068 25.8 20.8637 26.2 20.1477 26.5C19.8409 26.6 19.4318 26.9 19.2273 27.1C18.2046 28.1 19.5341 29.5 20.6591 28.7C21.7841 27.9 27.5114 27.4 31.0909 27.8C33.75 28.1 34.6705 28.3 35.1818 28.7C35.5909 29 36.2046 29 36.6137 28.7C37.0227 28.3 37.0227 27.5 36.6137 27.1C36 26.5 35.2841 26.3 33.2387 25.9C32.1137 25.7 31.2955 25.6 28.5341 25.6C26.6932 25.5 24.75 25.6 24.2387 25.6Z" stroke="white" stroke-miterlimit="10"/>
<path d="M26.1818 28.7C22.2955 29 20.3523 29.4 18.1023 30.3C15.1364 31.6 13.1932 33.5 12.375 36.3C12.0682 37.3 11.8637 38.7 11.9659 38.8C12.0682 38.9 12.7841 38.8 13.9091 38.7C22.0909 37.8 33.75 37.8 42.0341 38.7C43.0568 38.8 43.9773 38.9 43.9773 38.8C44.0796 38.7 43.7728 36.9 43.5682 36.2C42.2387 32 38.3523 29.6 32.0114 28.9C30.8864 28.7 27.1023 28.6 26.1818 28.7Z" stroke="white" stroke-miterlimit="10"/>
<path d="M20.0455 39.1C14.2159 39.4 10.4318 39.9 8.89774 40.7C8.07956 41.1 7.67047 41.6 7.67047 42.4C7.67047 43.2 8.07956 43.7 8.89774 43.9C9.40911 44 9.71593 43.9 10.4318 43.5C11.1477 43 14.1137 42.6 19.4318 42.3C24.5455 42 34.6705 42.1 39.0682 42.4C43.0568 42.7 45.1023 43.1 45.7159 43.5C46.3296 43.9 46.7386 44 47.25 43.9C48.0682 43.7 48.4773 43.1 48.4773 42.3C48.4773 41.2 47.5568 40.5 45.4091 40C43.9773 39.7 41.8296 39.4 38.9659 39.2C36 39 23.5227 38.9 20.0455 39.1Z" stroke="white" stroke-miterlimit="10"/>
<path d="M45.8182 44.5V62.9H10.0227V44.7L10.4318 44.3C10.8409 43.9 11.1477 43.9 12.9886 43.6C14.9318 43.3 18.7159 43.1 22.5 43C23.8295 43 24.9545 42.9 25.0568 42.9C25.1591 42.8 32.0113 42.9 35.2841 43.1C39.1704 43.3 44.0795 43.7 44.7954 44C44.8977 44 45.2045 44.2 45.4091 44.3L45.8182 44.5Z" stroke="white" stroke-miterlimit="10"/>
</g>
<defs>
<clipPath id="clip0">
<rect width="225" height="70" fill="white"/>
</clipPath>
</defs>
</svg>
