<?xml version="1.0" encoding="utf-8"?>
<!-- Generator: Adobe Illustrator 23.0.2, SVG Export Plug-In . SVG Version: 6.00 Build 0)  -->
<svg version="1.1" id="Слой_1" xmlns="http://www.w3.org/2000/svg" xmlns:xlink="http://www.w3.org/1999/xlink" x="0px" y="0px"
	 viewBox="0 0 226 274" style="enable-background:new 0 0 226 274;" xml:space="preserve">
<style type="text/css">
	.st0{fill:#FFFFFF;}
	.st1{font-family:'Montserrat-Bold';}
	.st2{font-size:18px;}
	.st3{display:none;}
	.st4{display:inline;fill:#EBEDC1;}
	.st5{fill:#EDEDC3;}
	.st6{fill:#FED330;}
	.st7{fill:none;}
	.st8{fill:none;stroke:#FFFFFF;}
	.st9{font-size:12px;glyph-orientation-vertical:0;writing-mode:tb;}
</style>
<image style="overflow:visible;enable-background:new    ;" width="3500" height="3500" xlink:href="7D8A2CA1.png"  transform="matrix(6.457143e-02 0 0 7.860951e-02 0 -1.1333)">
</image>
<text transform="matrix(1.0003 0 0 1 11.8936 34.8339)" class="st0 st1 st2">Подборки лучших </text>
<text transform="matrix(1.0003 0 0 1 11.8936 56.4335)" class="st0 st1 st2">работ в </text>
<text transform="matrix(1.0003 0 0 1 11.8936 78.0336)" class="st0 st1 st2">INSTAGRAM</text>
<g class="st3">
	<path class="st4" d="M134.6,69.3l-3.7-4l-3.3,3.8l-5.6-0.6l-6.1,1.3l-6.2,0.5l-3.1,4.6l-6,6.4l0,0l-5.7,7.9l-1.7,7.1l-5,0.7
		l-1.4,3.5L83.4,96l-5.1,2.3l-4.6-6.8l-5.3,1.8c-0.2,0-0.4,0.1-0.7,0.1c-0.1,0-0.2,0.1-0.3,0.2l-0.5,0.2c-1.8-1.8-4-3-6-4.5
		c-1.1-0.8-2-1.7-2.9-2.7c-0.8-0.9-1.6-1.9-2.5-2.8L52,79.2c-0.3-0.7-0.7-1.4-1.1-2.1c-0.2-0.4-0.4-0.9-0.4-1.3
		c-0.1-0.5-0.1-1.1-0.1-1.6c0-1-0.1-2.1-0.2-3.1c-0.1-0.5-0.1-1.1-0.3-1.6l0,0v-0.6l-6.6-6.7c1,0.2,1.9,0.4,2.9,0.5l2.5,2.7l7.9-0.9
		l10.9,3.8h-0.3l13.1-0.1l4.2,1.6l3.8,0.2l2.3,1.7c1.1,1,2.3,2,3.5,2.9c0.1,0.1,0.3,0.1,0.4,0.1l4.3,3.2l-3.5-3.2l-0.4-0.4
		c0-0.1-0.1-0.2-0.2-0.3c-1.4-1-2.7-2.1-3.9-3.3c-0.6-0.6-1.1-1.2-1.7-1.8c-0.6-0.5-1.2-0.5-1.9-0.4c-1.3,0.2-2.7,0.2-4-0.3
		c-0.7-0.2-1.4-0.6-2-0.9c-0.7-0.3-1.4-0.5-2.1-0.5c-0.8-0.1-1.7,0-2.5,0c-0.3,0-0.5,0-0.8,0c0.8-1,1.5-2,2.3-2.9
		c0.2-0.3,0.5-0.6,0.7-0.9s0.4-0.4,0.8-0.4c0.8,0,1.5,0,2.3,0.1c0.3,0,0.7,0.1,1,0s0.6-0.3,0.8-0.5c0.5-0.5,0.9-1,1.4-1.5
		c1-1.1,2.1-2,3.3-2.9c1.3-1,2.7-1.9,4.2-2.7c0.1-0.1,0.2-0.1,0.2-0.2l9.4,1.7l6.8-2.2l6.9-0.1l3.3-0.5l-10.4-0.3l-6.7,2.2L92,53.9
		l-9.9,7.4L78,61l-4.1,5.3c-0.8-0.1-1.5,0.3-2.3,0.5c-1.1,0.2-2.3-0.2-3.4-0.5c-2.8-0.8-5.5-1.7-8.2-2.6c-0.9-0.3-1.8-0.6-2.7-1
		l0.1-3.6l-2-1.1c0.3-0.5,0.6-1.1,0.9-1.6c0.1-0.1,0.2-0.3,0.2-0.5c1.5-0.6,2.9-1.2,4.4-1.8c0.8-0.4,1.2-1.1,1.6-1.8
		c0.5-0.8,1-1.6,1.4-2.4c0.4-0.6,0.7-1.1,1.2-1.6c0.4-0.2,0.6-0.3,1-0.5s0.8-0.3,1.1-0.5h0.1c0.2,0,0.3-0.2,0.4-0.4
		c0.2-0.8,0.4-1.7,0.6-2.5c0-0.1,0.1-0.3,0.1-0.4c0.3-0.9,0.5-1.8,0.8-2.7c0.3-1,0.6-2.1,0.9-3.1c0.2-0.9,0.4-1.9,1.3-2.3
		c0.2-0.1,0.3-0.3,0.2-0.5l8.3-8.6l-6.2,5.7l-4.5,3.9l-0.5,1.7c-0.2,0-0.3,0.1-0.3,0.3c-0.1,0.5-0.1,1-0.2,1.5l-0.4,1.4l-1.3,4.2
		l-3,1.4l-2.7,5l-6.3,0.8l-4,4.6c-0.6,0.5-1.3,1-2,1.5c-0.7,0.3-1.4,0.6-2.2,0.8c-0.1,0-0.1,0.1-0.2,0.1L46,59.6
		c-0.6-0.6-1.1-1.4-2-1.5c-0.2,0-0.5,0-0.7,0l-9.8-2.4l-7.7-8.5h-0.1c0,0-2-0.7-4.2-1.4c-0.1,0-0.1-0.1-0.2-0.1c0,0,0,0-0.1,0
		c-1.8-0.6-3.7-1.2-4.5-1.5c-2-0.7-4.3,1-4.8,2.2l0.2,0.1l1.2,2.4l4.2,0.1l7.5,2.3l3.1,2.8L28,54.2l5,5.2l11.3,6.8l3.6,5.2l0.9,5.3
		l5.4,8.5l0.5,8.1l0.2,0.1c0.7,0.6,1.5,1.3,1.8,1.7c-0.9,0.8-3.7,3.4-4.7,4.2l-0.1,0.1l-0.1,5.8c0,0.1-0.1,0.3-0.1,0.4l-1.5,3.9
		l-0.7,3.6l-5.5,1.4l-1.7,4.9l-1.8,4.7l3.8-8c2-0.4,3.9-1,5.8-1.7c0.2-0.1,0.2-0.2,0.3-0.3c0.1,0,0.1-0.1,0.1-0.2
		c0.4-1.2,0.5-2.5,0.8-3.7s0.7-2.4,1-3.6c0.1-0.2,0.1-0.4,0.2-0.6l0.2-0.4v-0.2c0.2-0.8,0.4-1.6,0.6-2.4c0.1-0.6,0.2-1.3,0.2-1.9
		c0.1-0.7,0.3-1.2,0.7-1.6c1.1-1,2.4-1.9,3.7-2.6c0.1-0.1,0.2-0.2,0.2-0.3c0,0,0.1,0,0.1-0.1c1,0.3,2.1,0.6,3.1,0.9
		c0.5,0.2,1.1,0.3,1.6,0.6c0.3,0.2,0.6,0.4,1,0.5l1,0.6l6.8,5.4c0.4,0.4,0.7,0.8,1,1.3l0.2,0.5l0,0v0.1l3.5,8.1l-0.3,6.1l-4.6,3.2
		l-1.4,9l-2,10l-3,2.2c-1.2,0.7-2.4,1.5-3.6,2.3l-3.3,1.7l-6.2,0.3c-0.2,0-0.3,0-0.5,0c-0.1,0-0.2,0-0.2,0.1l-6.9,0.4l6.6,0.4h0.4
		c0.1,0,0.2,0.1,0.2,0.1c1.3,0.1,2.6,0.1,3.9,0.2c0.6,0,1.3,0.1,1.9,0.1c0.6,0,1.1,0.1,1.7-0.1c0.5-0.1,1-0.4,1.4-0.8
		c0.5-0.4,0.9-0.7,1.4-1.1c0.9-0.7,1.9-1.3,2.9-1.8c0.3-0.1,0.5-0.3,0.8-0.4c0.6-0.3,1.2-0.6,1.9-0.9c-0.2,1.2-0.4,2.5-0.5,3.4
		c-0.1,0.1-0.1,0.2,0,0.4c0,0.2,0,0.3,0,0.4v0.2l0.7,1c0,0.2,0.1,0.3,0.3,0.4l0,0c0.7,1.4,1.5,2.7,2.3,4.1l0,0c0,0.1,0,0.2,0,0.3
		c0.1,1.2,0.1,2.4,0.2,3.6c0.1,2.3,0.2,4.6,0.4,7c-1.2,0.6-2.3,1.4-3.2,2.2l-0.1,0.1l-11.5,3.1l5.7-1l6.6-1.3l3.9-2.4l-0.5-7.3
		l-0.4-5.1l-0.2-0.2c-0.2-0.8-0.6-1.6-0.9-2.4c-0.5-1.3-0.9-2.6-1.2-3.9c0.2-0.6,0.3-1.3,0.5-1.9c0.4-1.7,0.7-3.4,0.9-5.1
		c0.1-0.7,0.2-1.4,0.2-2c0.5-2.7,0.8-5.4,1.3-8.2c0.3-1.7,0.6-3.3,1-5c0.8-0.6,1.6-1.1,2.4-1.7c0.5-0.4,1.1-0.8,1.6-1.1
		s1-0.6,1.2-1.2c0.2-0.6,0.1-1.2,0.2-1.8c0-0.7,0.1-1.3,0.1-2c0.1-1.1,0.1-2.1,0.2-3.2l0.2,0.2l0.8,0.3c0.1,0,0.1,0.1,0.2,0.1
		l4.2,1.4l2.4,2L90,120l6.9,15.8l-3.2-10.2c0.1-0.1,0.1-0.2,0-0.4c-0.5-1.3-1-2.6-1.6-3.9c-0.3-0.6-0.5-1.4-0.8-2
		c-0.3-0.5-1-0.6-1.5-0.7c-0.3-0.1-0.6-0.1-0.9-0.1s-0.7,0-0.9-0.2c-0.3-0.2-0.5-0.4-0.7-0.7s-0.5-0.4-0.8-0.6
		c-0.6-0.4-1.3-0.6-2-0.9c-0.7-0.3-1.3-0.6-2-0.9c-0.7-0.3-1.4-0.6-2-1c-0.1-0.1-0.3-0.2-0.4-0.3c-2.3-3.9-4.9-7.6-7.7-11.2l0,0
		c0,0,0-0.1-0.1-0.1c-0.3-0.7-0.9-1-1.6-1.3c-0.7-0.4-1.3-0.8-2-1.2c-2.6-1.5-5.3-2.9-7.9-4.4c-1.1-0.6-2.1-1.3-3.1-2.1
		c-0.3-1.8-0.9-3.5-1.1-5.3l1.5,1.7l7.7,5.6l0.2-0.1c0.1,0.1,0.2,0.2,0.3,0.3c0.3,0.3,0.6,0.6,1,0.5s0.8-0.2,1.2-0.4
		c0.8-0.3,1.6-0.6,2.4-1c0.7-0.2,1.5-0.3,2.2-0.5c1.1,1.6,2.2,3.2,3.3,4.8c0.1,0.1,0.1,0.1,0.2,0.2c0.2,0.3,0.3,0.6,0.5,1
		c0.1,0.2,0.4,0.4,0.6,0.3c0,0.1,0.1,0.1,0.1,0.1c0.2,0.2,0.4,0.2,0.6,0.1c1.4-0.7,2.8-1.4,4.2-2c1,1,1.9,2,2.8,3.1
		c0.5,0.6,0.9,1.1,1.3,1.7c0.4,0.5,1,0.8,1.6,0.7c0.1,0,0.1,0,0.1-0.1c0.2,0.1,0.4,0.2,0.5,0.3l11.2,7.3c0,0.1,0.1,0.2,0.3,0.3
		l1.1,3.1c0.2,0.8,0.4,1.6,0.7,2.4c-0.1,0.2-0.2,0.4,0.1,0.6c0.9,0.7,1.7,1.5,2.6,2.2c1.5,1.4,3,2.7,4.6,3.9
		c0.1,0.1,0.1,0.1,0.2,0.2c0.1,0.1,0.1,0.1,0.2,0.1s0.1,0.1,0.2,0.1c0,0.1,0.1,0.2,0.2,0.2c0.1,0.1,0.3,0.1,0.4,0.2
		c0.9,0.5,1.8,1,2.8,1.4c0.2,0.1,0.5,0.2,0.7,0.3c-0.2,1.5-0.3,2.9-0.3,4.4l-0.1,1.3l-4.6,5.5l0.7,8.6l0.5,1l0,0l0,0l2.5,5.5
		l1.5,6.2l0.7,7.3l-0.1,0.1l-2.5,4.4l-1.2,8.3l2.4,5.3l-12.5,2.2l5.6-0.6l8.1-0.8l0.1,0.1l-2.5,2.5l2.9,4.5l-0.9,5.5l3.7,1.5
		c0.1,0.1,0.2,0.1,0.3,0.2h0.1l2.9,1.2c-0.1,0.2-0.1,0.3-0.2,0.4c0,0.1,0,0.2,0,0.3l-3.2,7l-2.3,6.2l-2,6l5.2-11.8l3.5-7.7
		c0.4-0.5,0.6-1,0.9-1.6c0.1-0.2,0-0.5-0.3-0.6c-2.2-0.9-4.5-1.5-6.8-1.8c0.1-0.7,0.3-1.5,0.4-2.2c0.1-0.5,0.2-0.9,0.3-1.4
		c0.1-0.4,0.2-0.7,0.2-1.1c0-0.8-0.7-1.5-1.1-2.1c-0.6-0.8-1.1-1.6-1.7-2.4l0,0c0.5-0.6,1-1.2,1.6-1.8c0.3-0.3,0.6-0.6,0.6-1
		s-0.3-0.9-0.5-1.3c-0.7-1.3-1.4-2.7-2.3-3.9c0-0.1,0-0.1,0-0.2c0.1-0.4,0.1-0.9,0.2-1.3c0.1-0.9,0.2-1.7,0.3-2.6
		c0.1-1.6,0.2-3.3,0.2-5l1.7-4l0.2-0.3v-0.1l0.3-0.6l-1.6-13.3l-3.4-5.6l-0.5-8l3-4c0.3-0.3,0.6-0.6,0.9-0.9
		c0.3-0.3,0.6-0.7,0.7-1.1l0,0l0.5-0.6v-0.1c0-1,0-2,0.1-2.9c0-0.4,0.1-0.7,0.1-1.1c0-0.1,0-0.2-0.1-0.3c0-0.4,0-0.7,0.1-1
		c0.1,0,0.2,0.1,0.4,0.2c0.1,0.1,0.2,0.2,0.3,0.2c0.1,0,0.1,0,0.2,0c0.2,0.1,0.3,0.1,0.5,0.2c0.2,0.1,0.4,0.2,0.6,0.2
		c0.1,0,0.3,0.1,0.4,0.1l0.2,0.3c0,0.1,0,0.2,0.1,0.2c0.1,0.2,0.1,0.3,0.2,0.5c0.3,0.7,0.7,1.4,1.2,2c0,0.1,0.1,0.1,0.1,0.1l0.1,0.3
		l3.9-0.9c0.4-0.1,0.8-0.1,1.2-0.2c0.8-0.1,1.5-0.3,2.3-0.4l0,0l1.2,0.6c0.2,0.1,0.4,0.3,0.6,0.4c1.2,0.8,2.5,1.5,3.9,2
		c0.5,0.8,1,1.6,1.5,2.4c0.3,0.5,0.6,0.9,0.9,1.4c0.3,0.4,0.5,0.9,0.9,1.1c0.4,0.2,0.8,0.1,1.2,0c0.5-0.1,0.9-0.2,1.4-0.4
		c0.2-0.1,0.5-0.2,0.7-0.3c0,0.1,0.1,0.2,0.3,0.2c2.8,1.1,5.5,2.2,8.2,3.6c0.1,0.1,0.2,0.1,0.3,0l1.2,3.7c0,0.1,0,0.1,0,0.2l0.1,0.3
		l4.5,1.9v3c0,0.3,0,0.7,0,1c0,0.2,0.2,0.5,0.4,0.5c0.1,0,0.2,0,0.3,0.1c0.1,0,0.2,0.1,0.3,0.1s0.2,0,0.3,0c1,0.2,2,0.3,3,0.5
		c1.7,3.1,3.8,6,6.4,8.6c0,0,0,0.1,0.1,0.1c0,0.1,0,0.1,0,0.2c0,0.6,0.1,1.2,0.1,1.8l-1.3,7.7l2.7,6.2c-0.1,1-0.4,6.3-0.5,7.1
		l-7.3,11.4l-4.9,8.3l6.9-10.3c0.1,0,0.3,0,0.4-0.1c2.2-2,3.3-4.8,5.1-7.2c0.4-0.6,0.9-1.1,1.1-1.8c0.2-0.7,0.1-1.4,0.2-2.1
		c0-0.8,0-1.6,0.1-2.4c0-0.4,0-0.8,0-1.2s0.1-0.7,0.5-0.9c1.4-0.6,2.8-1.1,4.2-1.7l0.3-0.1l12.9,8.9l-7-5.7l-5.4-3.7
		c0-0.2-0.2-0.5-0.5-0.5c-1.5,0.1-2.9,0.2-4.4,0.3c-0.3,0-0.7,0.1-1,0.1c-0.1,0-0.2,0-0.2,0s0,0-0.1,0l0,0c-0.1-0.1-0.2-0.4-0.2-0.5
		c-0.3-0.7-0.6-1.4-0.9-2c-0.3-0.6-0.6-1.2-0.7-1.8c-0.1-0.6,0.1-1.2,0.3-1.8c0.3-1.2,0.4-2.5,0.5-3.8c0.1-0.8,0.1-1.6,0.1-2.4
		l0.2-1.5c0.1-0.1,0.2-0.3,0.1-0.5l0.1-0.4l-3.1-3.7l-2.9-4.9c0-0.1-0.1-0.2-0.2-0.3l-0.6-1l-3.9-0.4c0-0.2,0-0.4,0-0.6
		c0-0.1,0-0.2,0-0.3c0-0.2,0-0.5,0-0.7c0.1-0.7,0.3-1.4,0.5-2.1c0.1-0.3-0.3-0.8-0.6-0.6c-0.1,0-0.2,0.1-0.3,0.1
		c-0.8-0.4-1.7-0.8-2.5-1.1c-0.7-0.3-1.3-0.7-1.8-1.3c-0.5-0.7-0.8-1.6-1.1-2.3c-0.3-0.8-0.7-1.5-1-2.3l0,0l0,0
		c0-0.1-0.1-0.2-0.1-0.3s-0.1-0.1-0.1-0.1c0.2-0.2,0.1-0.6-0.3-0.7c-0.8-0.2-1.6-0.3-2.5-0.3l-1.7-0.8c-0.9-0.6-1.8-1.1-2.7-1.7
		c-0.2-0.1-0.4-0.1-0.5,0.1l0,0l-3.7,1l-1.3-1.8c-0.2-0.5-0.5-0.9-0.8-1.3c-0.2-0.3-0.4-0.5-0.7-0.6l0,0l-0.2-0.1
		c-0.2-0.3-0.4-0.5-0.7-0.7c-0.4-0.2-0.8-0.4-1.2-0.6c-0.4-0.2-0.9-0.5-1.3-0.8c-0.8-0.5-1.6-1.1-2.5-1.5c-0.8-0.4-1.6-0.2-2.4,0
		c-0.9,0.2-1.9,0.4-2.8,0.7c-0.4,0.1-0.9,0.2-1.3,0.3c-0.1,0-0.2,0.1-0.3,0.1c0,0,0,0,0-0.1c-0.1-0.2-0.3-0.6-0.4-0.8
		c-0.4-0.8-0.7-1.7-1.5-2.1c-0.4-0.2-0.9-0.3-1.4-0.5l0,0l-3.6-1.5l-5.8-2.8l-5-4.6c-0.2-0.2-0.4-0.5-0.6-0.7
		c-0.3-0.4-0.4-0.9-0.5-1.4c-0.2-1.1-0.4-2.2-0.8-3.3c-0.1-0.2-0.2-0.3-0.4-0.3c0-0.3-0.2-0.5-0.4-0.6c-0.1-0.1-0.3-0.1-0.4-0.1
		c-3.6-2.6-7.3-5.1-11-7.6c-0.7-0.5-1.3-0.9-2-1.3c-0.2-0.1-0.3-0.2-0.5-0.3c0.4-0.8,0.8-1.7,1.2-2.5c0.2,0.2,0.5,0.3,0.7,0.1v-0.1
		h0.1c1.4-0.4,2.8-0.7,4.2-0.8c0.7-0.1,1.3-0.1,2-0.1c0.8,0.2,1.6,0.3,2.4,0.4c0.3,0.2,0.5,0.5,0.8,0.7c0.3,0.3,0.7,0.6,1,1
		c0.7,0.6,1.3,1.2,2,1.8c0.7,0.6,1.3,1.2,2,1.8c0,0,0,0,0.1,0.1l0.7,0.8l0.4-0.2c0.2,0,0.4,0,0.6-0.1c0.7-0.3,1.4-0.7,2.1-1
		s1.4-0.6,2.1-0.9c1.2-0.5,2.5-0.9,3.8-1.3c0.4,0,0.8,0,1.3,0c0,0,0,0,0.1,0c2.5,0.9,5,1.5,7.5,2c2.7,0.6,5.3,1.3,7.7,2.5
		c1.4,0.7,2.7,1.6,3.9,2.6c0.2,0.1,0.5,0.2,0.6,0c0-0.1,0.1-0.1,0.1-0.2c1.6-0.9,3.1-2,4.6-3.1l5.1,0.6l4.4-0.3l3.2,2.3l1.4,3.1
		l2.4-2.1l2,2.8h0.1c0.1,0.2,0.3,0.4,0.6,0.3c0.2,0,0.3-0.1,0.5-0.1c0.1,0,0.2,0.1,0.4,0.1s0.3-0.1,0.3-0.2c0.6-0.1,1.1-0.2,1.7-0.3
		c0.5-0.1,1-0.2,1.4-0.3s0.8-0.1,1-0.5c0.1-0.3,0-0.8,0.1-1.1c0.1-0.4,0.2-0.7,0.3-1.1c0.2-0.4,0.4-0.8,0.6-1.2l0.1-0.1
		c0.1-0.2,0.2-0.4,0.4-0.7l0,0c0.3,0,0.6,0,0.9,0.1c0.6,0.1,1-0.2,1.5-0.3c0.1,0,0.2-0.1,0.2-0.2l3.3-0.3l4.6-0.8l-11.7,0.6l-2,4.2
		l-2.8,0.7c-0.4-0.5-0.8-1-1.2-1.5c-0.6-0.7-1.1-1.4-1.9-1.9c-0.2-0.1-0.4-0.2-0.5,0c-0.5,0.4-1,0.9-1.4,1.3c-0.3-0.6-0.7-1-1.3-1.4
		c-0.7-0.5-1.4-0.7-2.2-1.1c-0.7-0.4-1.3-1-2.1-1.3c-0.7-0.3-1.5-0.3-2.2-0.3c-0.9,0-1.7-0.1-2.6-0.1c-0.9,0-1.7-0.1-2.6-0.1
		c-0.3,0-0.7,0-1-0.1c-0.1-0.1-0.3-0.2-0.5-0.1c-0.1,0-0.3,0.1-0.4,0.1c-0.2,0-0.3,0-0.5,0c-0.8,0-1.5,0.5-2.1,0.9
		c-0.1,0.1-0.3,0.2-0.4,0.3c-0.6,0.3-1.2,0.7-1.8,1.1c-0.1,0-0.1,0-0.2-0.1c-0.2-0.1-0.4-0.2-0.5-0.3c-0.1,0-0.1-0.1-0.1-0.1
		c-0.5-0.3-0.9-0.6-1.4-0.9c-0.6-0.3-1.3-0.6-2-0.8l-0.3-0.2l-7-1.7l-7.6-2.8l-6.6,2.6c-1.5,0.5-3,1.1-4.5,1.6c-0.1,0-0.1,0-0.1,0.1
		l-4.7-5.4l-5.2-1.7c0.2-1.9,0.5-3.9,1.1-5.7c0.3-0.9,0.8-1.7,1.3-2.5s1.1-1.6,1.6-2.5c2.3-3.3,4.9-6.3,7.7-9
		c0.4-0.4,0.8-0.8,1.1-1.2c0.3-0.5,0.5-1,0.7-1.5c0.4-0.8,0.8-1.5,1.3-2.3c0.1,0,0.1,0,0.2,0c3-0.5,6-1,9.1-1.4
		c1.5-0.2,2.9-0.4,4.4-0.3c0.7,0,1.5,0.2,2.2,0.2c0.3,0,0.7,0.1,1,0.1s0.7,0.1,1,0s0.6-0.4,0.8-0.6c0.3-0.3,0.6-0.5,0.9-0.8
		c0.4-0.3,0.8-0.6,1.3-1c0.1,0.1,0.1,0.1,0.2,0.2c0.7,0.6,1.3,1.3,2,1.9c0.2,0.2,0.5,0.5,0.8,0.6c0.2,0.2,0.5,0.2,0.7,0
		c0.4-0.4,0.8-0.8,1.2-1.1c0.1-0.1,0.2-0.2,0.3-0.2c0.1,0.3,0.2,0.5,0.3,0.8c0.3,0.6,0.6,1.2,0.8,1.9c0.2,0.6,0.3,1.1,0.9,1.5
		c0.1,0.1,0.3,0.2,0.4,0.3c0.4,0.5,0.9,1,1.5,1.4c1.9,1.7,4,3.2,5.9,4.9c0.1,0.1,0.3,0.1,0.4,0.1l2.6,2.4l2.5,1.8l-8-8.1l-3.4-3.3
		l-3-6.3L134.6,69.3"/>
</g>
<g>
	<g id="g414_2_" transform="scale(1.66612)">
		<path id="path416_2_" class="st5" d="M93,77.4c0,0-18.3,0-19.1,0s-1.6,0.4-3.1,2.1c-1.5,1.7-15.1,16.4-15.1,16.4h11l7.6-8.4
			l11.6,0.1L28,147h12.5l38.5-39.2l-0.2,10.7H70l-8.2,8.8c0,0,19.2,0,21.7,0c2.5,0,3.1-0.2,3.2-3.3s0.4-22.4,0.4-22.4l12.2-12.1
			c0,0,0,9.9,0,11.6s0.5,3,2.4,3s10.4,0,10.4,0l8.4-8h-12.1c0,0,0.3-11.2,0.3-14.4s-1.4-4.3-3.9-4.3C102.2,77.4,93,77.4,93,77.4"/>
	</g>
	<g id="g418_1_" transform="scale(1.65028)">
		<path id="path420_1_" class="st5" d="M112.2,67.3c0,4.2-3.1,7.5-6.9,7.5c-3.8,0-6.9-3.4-6.9-7.5s3.1-7.5,6.9-7.5
			C109.1,59.8,112.2,63.1,112.2,67.3"/>
	</g>
	<g id="g422_1_" transform="scale(1.57888)">
		<path id="path424_1_" class="st5" d="M69.7,101.9l2.8-3.2H25.7l-1.6,1.7H8.9l-1.3,1.1h15.6h0.3L69.7,101.9"/>
	</g>
	<g id="g426_1_" transform="scale(1.57249)">
		<path id="path428_1_" class="st5" d="M30.8,96.1h37l1.1-2.8H33.3l-1.6,1.7H14.6l-1.3,1.1L30.8,96.1L30.8,96.1"/>
	</g>
	<g id="g430_1_" transform="scale(1.58827)">
		<path id="path432_1_" class="st5" d="M69.8,89.7h8.1l-1.5-2.4H39.2l-1.3,1.4H25l-1.3,1.1H69L69.8,89.7"/>
	</g>
	<g id="g434_1_" transform="scale(1.59572)">
		<path id="path436_1_" class="st5" d="M82.2,83.7H41.1l-1.3,1.1h41.8L82.2,83.7"/>
	</g>
	<g id="g438_1_" transform="scale(1.58906)">
		<path id="path440_1_" class="st5" d="M78.4,81.6H47.5l-1,0.8h31.4L78.4,81.6"/>
	</g>
</g>
<g>
	<g id="g414_1_" transform="scale(1.66612)">
		<path id="path416_1_" class="st6" d="M94.1,79.7c0,0-18.3,0-19.1,0c-0.8,0-1.6,0.4-3.1,2.1c-1.5,1.7-15.1,16.4-15.1,16.4h11
			l7.6-8.4l11.6,0.1l-58,59.4h12.5l38.5-39.2l-0.2,10.7h-8.8l-8.2,8.8c0,0,19.2,0,21.7,0c2.5,0,3.1-0.2,3.2-3.3s0.4-22.4,0.4-22.4
			l12.2-12.1c0,0,0,9.9,0,11.6s0.5,3,2.4,3s10.4,0,10.4,0l8.4-8h-12.1c0,0,0.3-11.2,0.3-14.4s-1.4-4.3-3.9-4.3
			C103.4,79.7,94.1,79.7,94.1,79.7"/>
	</g>
	<g id="g418" transform="scale(1.65028)">
		<path id="path420" class="st6" d="M113.4,69.6c0,4.2-3.1,7.5-6.9,7.5c-3.8,0-6.9-3.4-6.9-7.5c0-4.2,3.1-7.5,6.9-7.5
			C110.3,62.1,113.4,65.4,113.4,69.6"/>
	</g>
	<g id="g422" transform="scale(1.57888)">
		<path id="path424" class="st6" d="M71,104.3l2.8-3.2H27l-1.6,1.7H10.1l-1.3,1.1h15.6h0.3L71,104.3"/>
	</g>
	<g id="g426" transform="scale(1.57249)">
		<path id="path428" class="st6" d="M32,98.5h37l1.1-2.8H34.6L33,97.5H15.8l-1.3,1.1L32,98.5L32,98.5"/>
	</g>
	<g id="g430" transform="scale(1.58827)">
		<path id="path432" class="st6" d="M71,92.1h8.1l-1.5-2.4H40.5l-1.3,1.4H26.3L25,92.2h45.3L71,92.1"/>
	</g>
	<g id="g434" transform="scale(1.59572)">
		<path id="path436" class="st6" d="M83.4,86.1H42.3L41,87.2h41.8L83.4,86.1"/>
	</g>
	<g id="g438" transform="scale(1.58906)">
		<path id="path440" class="st6" d="M79.6,83.9H48.7l-1,0.8h31.4L79.6,83.9"/>
	</g>
</g>
<rect x="202.4" y="21" class="st7" width="11.2" height="114"/>
<text transform="matrix(1 0 0 1 208.97 22.8332)" class="st8 st1 st9">@underdog</text>
</svg>
