<?xml version="1.0" encoding="utf-8"?>
<!-- Generator: Adobe Illustrator 23.0.2, SVG Export Plug-In . SVG Version: 6.00 Build 0)  -->
<svg version="1.1" id="Слой_1" xmlns="http://www.w3.org/2000/svg" xmlns:xlink="http://www.w3.org/1999/xlink" x="0px" y="0px"
	 viewBox="0 0 220 70" style="enable-background:new 0 0 220 70;" xml:space="preserve">
<style type="text/css">
	.st0{fill:none;stroke:#FFFFFF;stroke-miterlimit:10;}
	.st1{fill:none;}
	.st2{fill:none;stroke:#FFFFFF;}
	.st3{font-family:'Montserrat-Bold';}
	.st4{font-size:36px;}
</style>
<rect x="5.6" y="6.5" class="st0" width="43.7" height="57.9"/>
<rect x="5.6" y="6.5" class="st0" width="43.7" height="57.9"/>
<rect x="49.7" y="6.3" class="st1" width="138.4" height="28.3"/>
<text transform="matrix(1 0 0 1 49.7485 32.9642)" class="st2 st3 st4">UNDER</text>
<rect x="50.3" y="35.8" class="st1" width="168" height="29.1"/>
<text transform="matrix(1 0 0 1 50.3444 62.5011)" class="st2 st3 st4">GROUND</text>
<path class="st0" d="M25.7,13.4c-0.6,0.1-1.7,0.4-2.2,0.7c-0.9,0.5-0.9,0.3-0.9,5.8v4.9l0.3-0.1c2.1-0.6,7.1-0.6,9.2,0l0.3,0.1v-5
	v-5l-0.5-0.4C30.8,13.6,28.3,13.1,25.7,13.4z M28.1,15.6c0.6,0.2,1.3,0.8,1.5,1.4c0.9,2-1.2,4.1-3.2,3.2c-1.6-0.7-2-2.8-0.7-4
	C26.4,15.6,27.2,15.4,28.1,15.6z"/>
<path class="st0" d="M27,17.1c-0.6,0.3-0.7,1.1-0.2,1.6c0.1,0.1,0.4,0.2,0.7,0.2c0.3,0,0.5-0.1,0.7-0.3c0.4-0.4,0.4-0.8,0-1.2
	C27.8,17,27.4,16.9,27,17.1z"/>
<path class="st0" d="M23.7,25.6c-1.4,0.2-3.3,0.6-4,0.9c-0.3,0.1-0.7,0.4-0.9,0.6c-1,1,0.3,2.4,1.4,1.6c1.1-0.8,6.7-1.3,10.2-0.9
	c2.6,0.3,3.5,0.5,4,0.9c0.4,0.3,1,0.3,1.4,0c0.4-0.4,0.4-1.2,0-1.6c-0.6-0.6-1.3-0.8-3.3-1.2c-1.1-0.2-1.9-0.3-4.6-0.3
	C26.1,25.5,24.2,25.6,23.7,25.6z"/>
<path class="st0" d="M25.6,28.7c-3.8,0.3-5.7,0.7-7.9,1.6c-2.9,1.3-4.8,3.2-5.6,6c-0.3,1-0.5,2.4-0.4,2.5c0.1,0.1,0.8,0,1.9-0.1
	c8-0.9,19.4-0.9,27.5,0c1,0.1,1.9,0.2,1.9,0.1c0.1-0.1-0.2-1.9-0.4-2.6c-1.3-4.2-5.1-6.6-11.3-7.3C30.2,28.7,26.5,28.6,25.6,28.7z"
	/>
<path class="st0" d="M19.6,39.1c-5.7,0.3-9.4,0.8-10.9,1.6c-0.8,0.4-1.2,0.9-1.2,1.7c0,0.8,0.4,1.3,1.2,1.5c0.5,0.1,0.8,0,1.5-0.4
	c0.7-0.5,3.6-0.9,8.8-1.2c5-0.3,14.9-0.2,19.2,0.1c3.9,0.3,5.9,0.7,6.5,1.1c0.6,0.4,1,0.5,1.5,0.4c0.8-0.2,1.2-0.8,1.2-1.6
	c0-1.1-0.9-1.8-3-2.3c-1.4-0.3-3.5-0.6-6.3-0.8C35.2,39,23,38.9,19.6,39.1z"/>
<path class="st0" d="M44.8,44.5v18.4h-35V44.7l0.4-0.4c0.4-0.4,0.7-0.4,2.5-0.7c1.9-0.3,5.6-0.5,9.3-0.6c1.3,0,2.4-0.1,2.5-0.1
	c0.1-0.1,6.8,0,10,0.2c3.8,0.2,8.6,0.6,9.3,0.9c0.1,0,0.4,0.2,0.6,0.3L44.8,44.5z"/>
</svg>
