<svg width="31" height="30" viewBox="0 0 31 30" fill="none" xmlns="http://www.w3.org/2000/svg">
<path d="M15.8589 0C7.58084 0 0.845673 6.72923 0.845673 15C0.845673 23.2708 7.58084 30 15.8589 30C24.137 30 30.8721 23.2708 30.8721 15C30.8721 6.72923 24.137 0 15.8589 0ZM15.8589 2.30769C22.8874 2.30769 28.5624 7.97769 28.5624 15C28.5624 22.0223 22.8874 27.6923 15.8589 27.6923C8.8304 27.6923 3.1554 22.0223 3.1554 15C3.1554 7.97769 8.8304 2.30769 15.8589 2.30769ZM16.6892 7.60846L15.0274 9.23077L19.6469 13.8462H7.77485V16.1538H19.648L15.0286 20.7692L16.6892 22.3915L24.0873 15L16.6892 7.60846Z" fill="#1D1D1D"/>
</svg>
